<svg width="160" height="160" viewBox="0 0 160 160" fill="none" xmlns="http://www.w3.org/2000/svg">
  <rect width="160" height="160" rx="42" fill="#2B2523"/>
  <path d="M47 116V40h42c20.8 0 34 9.9 34 26.6 0 9.8-5.4 18-14 21.9 11.5 3.6 18.9 12.6 18.9 24.5 0 18-14.2 29.7-36.7 29.7H47Zm25-45.7h17.3c6.4 0 10.1-3.1 10.1-8.5 0-5.3-3.7-8.4-10.1-8.4H72v16.9Zm0 45.1h20.4c7.2 0 11.3-3.5 11.3-9.3 0-5.9-4.1-9.4-11.3-9.4H72v18.7Z" fill="#FAF7F2"/>
  <path d="M34 134c34-3.3 57-16.5 74.6-39.6 14.3-18.7 25.3-33 50.6-35.2" stroke="#C89B7B" stroke-width="11" stroke-linecap="round"/>
  <path d="M23 146c40.7-2.2 70.4-13.2 93.5-38.5" stroke="#E8DDD4" stroke-width="4.4" stroke-linecap="round" opacity=".75"/>
</svg>
