<svg width="420" height="120" viewBox="0 0 420 120" fill="none" xmlns="http://www.w3.org/2000/svg">
  <rect width="420" height="120" rx="32" fill="#FAF7F2"/>
  <g transform="translate(34 24) scale(.45)">
    <rect x="8" y="8" width="144" height="144" rx="44" fill="#FAF7F2" stroke="#E8DDD4" stroke-width="4"/>
    <path d="M103.5 42.5C87.8 33.1 66.1 35.7 53.3 49.2C40.1 63.1 38.9 84.1 50.7 99.2C60.9 112.3 79.7 116.4 95.1 109.1" stroke="#2B2523" stroke-width="8" stroke-linecap="round"/>
    <path d="M99 44C110.4 51.6 116.9 64 117.2 77.3C117.5 94.7 106.7 111.1 90.4 117.7" stroke="#C89B7B" stroke-width="8" stroke-linecap="round"/>
    <path d="M56 103C72 100.5 85.6 92.7 96 79.8" stroke="#8B5E4E" stroke-width="5" stroke-linecap="round"/>
    <path d="M59 122C75.4 121.8 89.7 117.3 102.6 108.2" stroke="#C89B7B" stroke-width="4" stroke-linecap="round" opacity=".8"/>
    <circle cx="67" cy="70" r="4" fill="#2B2523"/>
  </g>
  <text x="126" y="62" fill="#2B2523" font-family="Inter, Avenir, Helvetica, Arial, sans-serif" font-size="34" font-weight="760" letter-spacing="-.7">BellaOS</text>
  <text x="128" y="84" fill="#8A7F78" font-family="Inter, Avenir, Helvetica, Arial, sans-serif" font-size="13" font-weight="520">gestão para salões</text>
  <path d="M128 94H246" stroke="#C89B7B" stroke-width="3" stroke-linecap="round" opacity=".8"/>
</svg>
