<svg width="720" height="220" viewBox="0 0 720 220" fill="none" xmlns="http://www.w3.org/2000/svg">
  <rect width="720" height="220" rx="42" fill="#FAF7F2"/>
  <g transform="translate(55 38)">
    <rect x="0" y="0" width="144" height="144" rx="38" fill="#2B2523"/>
    <path d="M43 104V39h37c17.8 0 29.1 8.5 29.1 22.8 0 8.4-4.6 15.4-12 18.8 9.9 3.1 16.2 10.8 16.2 21 0 15.4-12.2 25.4-31.5 25.4H43Zm21.4-39.2h14.8c5.5 0 8.7-2.7 8.7-7.3s-3.2-7.2-8.7-7.2H64.4v14.5Zm0 38.6h17.5c6.2 0 9.7-3 9.7-8s-3.5-8.1-9.7-8.1H64.4v16.1Z" fill="#FAF7F2"/>
    <path d="M30 121c31-3 52-15 68-36 13-17 23-30 46-32" stroke="#C89B7B" stroke-width="10" stroke-linecap="round"/>
    <path d="M20 132c37-2 64-12 85-35" stroke="#E8DDD4" stroke-width="4" stroke-linecap="round" opacity=".75"/>
  </g>
  <text x="230" y="104" fill="#2B2523" font-family="Inter, Avenir, Helvetica, Arial, sans-serif" font-size="58" font-weight="800" letter-spacing="-2">BellaOS</text>
  <text x="234" y="142" fill="#8A7F78" font-family="Inter, Avenir, Helvetica, Arial, sans-serif" font-size="22" font-weight="500">Gestão premium para salões de beleza</text>
  <path d="M235 162H520" stroke="#C89B7B" stroke-width="5" stroke-linecap="round"/>
</svg>
